# xmcd
#
# Track frame offsets: 
#        183
#        27643
#        53403
#        87143
#        111690
#        134870
#        154290
#        191640
#
# Disc length: 2672 seconds
#
# Revision: 3
# Processed by: cddbd v1.5.2PL0 Copyright (c) Steve Scherf et al.
# Submitted via: ExactAudioCopy v1.0b6
#
DISCID=740a6e08
DTITLE=Trio Stendhal - Earthsound
DYEAR=1991
DGENRE=Jazz
TTITLE0=Gipsy Mountain
TTITLE1=Shanti
TTITLE2=Earthsound
TTITLE3=Theme For Angela
TTITLE4=Fanny and My Father
TTITLE5=Galima
TTITLE6=Out Of Brazil
TTITLE7=Lullaby For All Children
EXTD=YEAR: 1991
EXTT0=
EXTT1=
EXTT2=
EXTT3=
EXTT4=Fanny and My Father
EXTT5=
EXTT6=
EXTT7=
PLAYORDER=
